<svg xmlns="http://www.w3.org/2000/svg" xmlns:xlink="http://www.w3.org/1999/xlink" width="1080" zoomAndPan="magnify" viewBox="0 0 810 809.999993" height="1080" preserveAspectRatio="xMidYMid meet" version="1.0"><path fill="#ffffff" d="M 234.320312 453.953125 C 236.074219 453.886719 237.414062 471.066406 237.664062 475.605469 C 239.847656 515.332031 235.003906 555.769531 218.015625 599.867188 C 267.261719 619.902344 327.640625 622.777344 381.015625 618.886719 C 396.800781 617.722656 413.015625 616.027344 429.675781 614.167969 C 486.0625 607.824219 532.117188 606.644531 589.347656 610.792969 C 589.347656 610.769531 589.347656 610.769531 589.332031 610.757812 C 559.890625 550.664062 555.441406 503.636719 571.886719 438.878906 C 500.402344 449.890625 407.765625 473.550781 335.265625 466.949219 C 300.945312 463.824219 261.222656 452.277344 234.96875 435.546875 C 226.273438 430.003906 226.988281 428.984375 236.550781 432.285156 C 270.066406 443.84375 295.9375 452.167969 336.152344 453.808594 C 371.765625 455.257812 406.398438 449.886719 442.324219 443.570312 C 490.457031 435.078125 531.8125 431.441406 581.0625 430.535156 C 575.535156 483.652344 583.832031 566.488281 599.351562 617.617188 C 599.351562 617.636719 599.351562 617.636719 599.367188 617.65625 C 526.941406 621.902344 453.75 634.582031 382.300781 638.652344 C 315.792969 642.441406 267.539062 636.953125 207.683594 604.207031 C 220.65625 561.355469 228.578125 512.617188 231.601562 475.535156 C 231.96875 470.949219 232.933594 454.007812 234.324219 453.953125 Z M 234.320312 453.953125 " fill-opacity="1" fill-rule="nonzero"/><path fill="#ffffff" d="M 575.261719 426.371094 C 574.902344 426.226562 574.773438 425.539062 574.886719 424.328125 C 575.011719 423.125 575.398438 421.386719 576.203125 419.207031 C 576.996094 417.015625 578.210938 414.378906 580 411.46875 C 581.804688 408.53125 584.191406 405.316406 587.378906 402.09375 C 592.046875 397.480469 598.175781 393.050781 605.472656 389.046875 C 609.121094 387.035156 613.039062 385.128906 617.125 383.238281 C 621.199219 381.339844 625.457031 379.457031 629.664062 377.457031 C 636.207031 374.234375 643.023438 370.414062 649.851562 365.875 C 656.691406 361.339844 663.539062 356.101562 670.078125 350.074219 C 676.617188 344.046875 682.828125 337.230469 688.28125 329.589844 C 693.714844 321.941406 698.398438 313.46875 701.765625 304.140625 C 707.421875 288.878906 709.789062 271.410156 706.589844 254.476562 C 703.632812 238.726562 695.871094 223.089844 683.660156 211.90625 C 680.921875 209.339844 677.914062 206.980469 674.707031 204.851562 C 664.488281 198.03125 652.507812 193.714844 640.421875 191.449219 C 623.628906 188.328125 606.304688 189.433594 589.789062 192.234375 C 580.210938 193.871094 570.882812 196.160156 561.777344 198.699219 C 552.667969 201.246094 543.773438 204.0625 535.0625 206.820312 C 526.351562 209.582031 517.84375 212.300781 509.527344 214.746094 C 501.207031 217.1875 493.101562 219.359375 485.222656 221.140625 C 468.957031 224.792969 453.9375 226.671875 440.714844 227.453125 C 427.484375 228.230469 416.039062 227.9375 406.730469 227.1875 C 397.433594 226.457031 390.246094 225.273438 385.433594 224.140625 C 380.617188 223.015625 378.144531 221.941406 378.230469 221.140625 C 378.316406 220.339844 380.929688 219.84375 385.78125 219.457031 C 390.652344 219.070312 397.746094 218.78125 406.785156 218.148438 C 415.832031 217.519531 426.808594 216.527344 439.359375 214.605469 C 451.90625 212.691406 466.039062 209.835938 481.1875 205.441406 C 488.546875 203.3125 496.179688 200.792969 504.136719 198.011719 C 512.109375 195.21875 520.386719 192.167969 529.027344 189.046875 C 537.683594 185.925781 546.714844 182.742188 556.183594 179.804688 C 565.664062 176.855469 575.582031 174.144531 586.046875 172.058594 C 604.117188 168.445312 623.898438 166.992188 644.128906 170.386719 C 658.800781 172.828125 673.554688 178.191406 686.675781 186.949219 C 690.769531 189.699219 694.675781 192.757812 698.335938 196.105469 C 714.28125 211.042969 723.984375 230.835938 727.320312 250.832031 C 729.097656 261.523438 729.152344 272.167969 727.855469 282.367188 C 726.550781 292.558594 723.882812 302.328125 720.175781 311.34375 C 715.644531 322.28125 709.765625 332.023438 703.144531 340.613281 C 696.523438 349.210938 689.160156 356.675781 681.519531 363.082031 C 673.871094 369.5 665.96875 374.875 658.144531 379.34375 C 650.324219 383.824219 642.589844 387.398438 635.222656 390.230469 C 630.570312 392.082031 626.113281 393.632812 621.964844 395.085938 C 617.800781 396.550781 613.929688 397.929688 610.378906 399.34375 C 603.304688 402.191406 597.578125 405.246094 593.074219 408.617188 C 589.957031 410.894531 587.378906 413.273438 585.253906 415.476562 C 583.140625 417.667969 581.46875 419.699219 580.121094 421.375 C 577.433594 424.726562 575.984375 426.652344 575.261719 426.371094 Z M 575.261719 426.371094 " fill-opacity="1" fill-rule="nonzero"/><path fill="#ffffff" d="M 472.488281 202.585938 C 472.136719 204.355469 463.402344 204.285156 448.261719 203.363281 C 433.105469 202.445312 411.550781 200.773438 385.464844 199.921875 C 368.5625 199.398438 349.722656 199.179688 329.875 200.445312 C 310.007812 201.710938 289.148438 204.46875 268.402344 210.363281 C 265.914062 211.070312 263.449219 211.816406 261.007812 212.605469 C 249.835938 216.230469 239.117188 220.71875 229.214844 225.875 C 219.304688 231.023438 210.199219 236.847656 202.070312 243.117188 C 193.949219 249.390625 186.808594 256.101562 180.726562 263.023438 C 174.632812 269.9375 169.578125 277.054688 165.480469 284.132812 C 160.300781 292.925781 156.589844 301.5625 153.882812 309.417969 C 151.167969 317.257812 149.457031 324.304688 148.214844 330.152344 C 146.96875 336.007812 146.195312 340.664062 145.496094 343.878906 C 144.773438 347.082031 144.109375 348.832031 143.296875 348.875 C 142.496094 348.917969 141.585938 347.242188 140.789062 343.941406 C 139.976562 340.632812 139.289062 335.707031 139.195312 329.308594 C 139.113281 322.910156 139.625 315.039062 141.394531 306.082031 C 143.164062 297.128906 146.183594 287.066406 151.113281 276.601562 C 155.09375 268.25 160.238281 259.742188 166.632812 251.460938 C 173.011719 243.183594 180.640625 235.113281 189.445312 227.621094 C 198.257812 220.117188 208.242188 213.195312 219.164062 207.167969 C 230.097656 201.144531 241.972656 196.019531 254.417969 192.070312 C 257.097656 191.21875 259.824219 190.40625 262.558594 189.636719 C 285.34375 183.269531 307.871094 180.601562 328.894531 179.921875 C 349.910156 179.246094 369.449219 180.53125 386.703125 182.414062 C 413.289062 185.261719 434.964844 189.566406 449.84375 193.476562 C 464.730469 197.375 472.835938 200.8125 472.488281 202.585938 Z M 472.488281 202.585938 " fill-opacity="1" fill-rule="nonzero"/><path fill="#ffffff" d="M 142.578125 288.929688 C 142.894531 289.640625 141.628906 290.996094 139.046875 293.007812 C 136.457031 295.027344 132.542969 297.691406 127.613281 301.164062 C 122.699219 304.632812 116.757812 308.929688 110.203125 314.234375 C 103.65625 319.539062 96.488281 325.867188 89.191406 333.378906 C 82.566406 340.265625 75.773438 348.160156 69.800781 357.101562 C 63.8125 366.0625 58.640625 376.066406 55.667969 387.175781 C 53.046875 396.710938 51.898438 407 53.234375 417.105469 C 54.503906 426.613281 57.828125 436.125 63.523438 443.964844 C 65.921875 447.410156 68.820312 450.566406 72.125 453.378906 C 81.632812 461.496094 93.957031 466.511719 106.078125 468.453125 C 115.132812 469.898438 124.3125 469.589844 133.175781 468.164062 C 142.046875 466.75 150.601562 464.214844 158.582031 461.125 C 174.144531 454.988281 187.371094 446.371094 198.054688 437.394531 C 208.757812 428.425781 216.953125 419.078125 223.152344 410.90625 C 229.347656 402.734375 233.609375 395.722656 236.640625 390.917969 C 239.691406 386.097656 241.570312 383.503906 242.554688 383.84375 C 243.542969 384.183594 243.578125 387.457031 242.195312 393.222656 C 240.824219 398.984375 237.984375 407.253906 232.738281 417.027344 C 227.496094 426.777344 219.777344 438.035156 208.8125 449.03125 C 197.859375 460.03125 183.628906 470.773438 166.121094 478.75 C 157.195312 482.867188 147.308594 486.222656 136.710938 488.230469 C 126.097656 490.246094 114.792969 490.878906 103.140625 489.410156 C 87.28125 487.433594 71.160156 480.921875 58.121094 469.65625 C 53.585938 465.75 49.507812 461.320312 45.984375 456.453125 C 38.042969 445.160156 33.640625 432.238281 32.328125 419.535156 C 30.941406 406.074219 32.738281 393.0625 36.503906 381.414062 C 40.917969 367.933594 47.578125 356.386719 54.976562 346.558594 C 62.382812 336.730469 70.527344 328.601562 78.414062 321.902344 C 86.988281 314.523438 95.375 308.644531 103.027344 304.011719 C 110.683594 299.363281 117.613281 295.960938 123.402344 293.527344 C 129.199219 291.09375 133.871094 289.628906 137.136719 288.910156 C 140.40625 288.195312 142.269531 288.222656 142.578125 288.929688 Z M 142.578125 288.929688 " fill-opacity="1" fill-rule="nonzero"/><path fill="#ffffff" d="M 535.886719 408.269531 C 534.640625 408.195312 533.554688 406.523438 532.714844 403.445312 C 531.867188 400.363281 531.273438 395.898438 531.167969 390.285156 C 530.972656 379.050781 532.808594 363.183594 538.460938 345.765625 C 540.820312 338.496094 543.828125 330.992188 547.523438 323.523438 C 552.871094 312.691406 559.136719 302.964844 565.570312 294.726562 C 571.996094 286.5 578.582031 279.753906 584.554688 274.613281 C 590.523438 269.472656 595.84375 265.929688 599.871094 263.941406 C 603.894531 261.949219 606.625 261.496094 607.601562 262.609375 C 608.582031 263.726562 607.75 266.3125 605.605469 270.070312 C 603.472656 273.835938 600.027344 278.796875 595.875 284.84375 C 591.71875 290.890625 586.875 298.035156 581.863281 306.128906 C 576.867188 314.234375 571.722656 323.289062 566.890625 333.070312 C 563.5625 339.816406 560.582031 346.472656 557.984375 352.855469 C 551.699219 368.222656 547.445312 382.132812 544.148438 392.167969 C 542.507812 397.195312 541.074219 401.253906 539.730469 404.042969 C 538.382812 406.824219 537.125 408.339844 535.886719 408.269531 Z M 535.886719 408.269531 " fill-opacity="1" fill-rule="nonzero"/><path fill="#ffffff" d="M 466.609375 417.492188 C 465.378906 417.738281 463.863281 416.414062 462.226562 413.664062 C 460.585938 410.914062 458.820312 406.730469 457.25 401.3125 C 455.679688 395.898438 454.308594 389.238281 453.476562 381.632812 C 452.648438 374.015625 452.375 365.441406 452.941406 356.289062 C 453.398438 349.171875 454.347656 341.71875 455.917969 334.15625 C 458.308594 322.511719 461.894531 311.714844 466.015625 302.304688 C 470.15625 292.894531 474.804688 284.886719 479.277344 278.5625 C 483.742188 272.246094 487.996094 267.609375 491.386719 264.761719 C 494.773438 261.929688 497.277344 260.871094 498.496094 261.714844 C 499.71875 262.570312 499.554688 265.238281 498.4375 269.335938 C 497.308594 273.433594 495.238281 278.976562 492.765625 285.71875 C 490.285156 292.460938 487.40625 300.417969 484.636719 309.308594 C 481.875 318.199219 479.214844 328.046875 477.070312 338.496094 C 475.660156 345.304688 474.554688 351.9375 473.695312 358.292969 C 471.507812 374.667969 470.984375 389.175781 470.402344 399.730469 C 470.113281 405.023438 469.804688 409.324219 469.230469 412.371094 C 468.664062 415.425781 467.828125 417.234375 466.609375 417.492188 Z M 466.609375 417.492188 " fill-opacity="1" fill-rule="nonzero"/><path fill="#ffffff" d="M 281.890625 420.300781 C 279.445312 419.796875 278.101562 415.476562 277.050781 408.957031 C 275.996094 402.421875 275.136719 393.640625 273.558594 383.8125 C 272.945312 379.992188 272.230469 376.003906 271.386719 371.914062 C 268.785156 359.332031 265.355469 348.125 262.992188 339.582031 C 261.8125 335.300781 260.917969 331.675781 260.644531 328.882812 C 260.363281 326.089844 260.6875 324.132812 261.910156 323.269531 C 263.121094 322.417969 265.128906 322.761719 267.664062 324.296875 C 270.207031 325.820312 273.285156 328.527344 276.460938 332.382812 C 279.621094 336.242188 282.878906 341.234375 285.730469 347.1875 C 288.5625 353.148438 290.972656 360.0625 292.523438 367.535156 C 293.539062 372.414062 294.125 377.21875 294.320312 381.800781 C 294.839844 393.574219 292.859375 403.734375 290.195312 410.539062 C 288.867188 413.9375 287.378906 416.511719 285.933594 418.171875 C 284.488281 419.828125 283.109375 420.5625 281.890625 420.300781 Z M 281.890625 420.300781 " fill-opacity="1" fill-rule="nonzero"/><path fill="#ffffff" d="M 364.601562 412.78125 C 363.402344 412.476562 362.65625 410.652344 362.203125 407.582031 C 361.75 404.527344 361.570312 400.246094 361.390625 394.980469 C 361.0625 384.46875 360.730469 370.019531 358.269531 353.789062 C 357.253906 347.050781 355.871094 340.003906 354.0625 332.796875 C 351.433594 322.335938 348.140625 312.554688 344.683594 303.792969 C 341.222656 295.011719 337.597656 287.25 334.417969 280.703125 C 331.226562 274.148438 328.496094 268.804688 326.863281 264.8125 C 325.230469 260.824219 324.699219 258.167969 325.820312 257.160156 C 326.925781 256.175781 329.570312 256.941406 333.34375 259.453125 C 337.089844 261.96875 341.945312 266.238281 347.125 272.253906 C 352.304688 278.28125 357.804688 286.089844 362.746094 295.433594 C 367.675781 304.777344 372.015625 315.675781 375.003906 327.542969 C 377.050781 335.714844 378.324219 343.800781 378.917969 351.5 C 379.621094 360.75 379.351562 369.414062 378.464844 377.09375 C 377.578125 384.761719 376.082031 391.441406 374.378906 396.847656 C 372.703125 402.253906 370.8125 406.394531 369.085938 409.105469 C 367.347656 411.796875 365.800781 413.070312 364.601562 412.78125 Z M 364.601562 412.78125 " fill-opacity="1" fill-rule="nonzero"/></svg>