<svg xmlns="http://www.w3.org/2000/svg" xmlns:xlink="http://www.w3.org/1999/xlink" width="500" zoomAndPan="magnify" viewBox="0 0 375 374.999991" height="500" preserveAspectRatio="xMidYMid meet" version="1.0"><defs><g/></defs><g fill="#ff5100" fill-opacity="1"><g transform="translate(110.176008, 191.795081)"><g><path d="M 21.546875 -15.421875 C 23.304688 -15.023438 24.703125 -14.148438 25.734375 -12.796875 C 26.773438 -11.453125 27.296875 -9.910156 27.296875 -8.171875 C 27.296875 -5.617188 26.414062 -3.617188 24.65625 -2.171875 C 22.894531 -0.722656 20.425781 0 17.25 0 L 2.390625 0 L 2.390625 -30.03125 L 16.78125 -30.03125 C 19.84375 -30.03125 22.25 -29.347656 24 -27.984375 C 25.75 -26.617188 26.625 -24.703125 26.625 -22.234375 C 26.625 -20.472656 26.160156 -19.003906 25.234375 -17.828125 C 24.316406 -16.648438 23.085938 -15.847656 21.546875 -15.421875 Z M 10.734375 -18.109375 L 14.953125 -18.109375 C 17.054688 -18.109375 18.109375 -18.972656 18.109375 -20.703125 C 18.109375 -22.492188 17.054688 -23.390625 14.953125 -23.390625 L 10.734375 -23.390625 Z M 15.59375 -6.734375 C 17.6875 -6.734375 18.734375 -7.613281 18.734375 -9.375 C 18.734375 -10.28125 18.457031 -10.972656 17.90625 -11.453125 C 17.351562 -11.941406 16.566406 -12.1875 15.546875 -12.1875 L 10.734375 -12.1875 L 10.734375 -6.734375 Z M 15.59375 -6.734375 "/></g></g></g><g fill="#ff5100" fill-opacity="1"><g transform="translate(138.752058, 191.795081)"><g><path d="M 10.734375 -19.671875 C 11.671875 -21.035156 12.804688 -22.113281 14.140625 -22.90625 C 15.472656 -23.707031 16.90625 -24.109375 18.4375 -24.109375 L 18.4375 -15.203125 L 16.09375 -15.203125 C 14.28125 -15.203125 12.929688 -14.847656 12.046875 -14.140625 C 11.171875 -13.429688 10.734375 -12.195312 10.734375 -10.4375 L 10.734375 0 L 2.390625 0 L 2.390625 -23.890625 L 10.734375 -23.890625 Z M 10.734375 -19.671875 "/></g></g></g><g fill="#ff5100" fill-opacity="1"><g transform="translate(157.788555, 191.795081)"><g><path d="M 22.75 -30.03125 L 22.75 -23.390625 L 10.734375 -23.390625 L 10.734375 -18.109375 L 19.59375 -18.109375 L 19.59375 -11.75 L 10.734375 -11.75 L 10.734375 0 L 2.390625 0 L 2.390625 -30.03125 Z M 22.75 -30.03125 "/></g></g></g><g fill="#ff5100" fill-opacity="1"><g transform="translate(181.680003, 191.795081)"><g><path d="M 13.5 0.296875 C 11.113281 0.296875 8.976562 -0.195312 7.09375 -1.1875 C 5.207031 -2.1875 3.722656 -3.609375 2.640625 -5.453125 C 1.554688 -7.296875 1.015625 -9.46875 1.015625 -11.96875 C 1.015625 -14.4375 1.5625 -16.59375 2.65625 -18.4375 C 3.75 -20.289062 5.238281 -21.710938 7.125 -22.703125 C 9.019531 -23.691406 11.160156 -24.1875 13.546875 -24.1875 C 15.929688 -24.1875 18.066406 -23.691406 19.953125 -22.703125 C 21.835938 -21.710938 23.328125 -20.289062 24.421875 -18.4375 C 25.515625 -16.59375 26.0625 -14.4375 26.0625 -11.96875 C 26.0625 -9.5 25.515625 -7.332031 24.421875 -5.46875 C 23.328125 -3.613281 21.828125 -2.1875 19.921875 -1.1875 C 18.023438 -0.195312 15.882812 0.296875 13.5 0.296875 Z M 13.5 -6.9375 C 14.664062 -6.9375 15.640625 -7.367188 16.421875 -8.234375 C 17.203125 -9.109375 17.59375 -10.351562 17.59375 -11.96875 C 17.59375 -13.582031 17.203125 -14.816406 16.421875 -15.671875 C 15.640625 -16.523438 14.679688 -16.953125 13.546875 -16.953125 C 12.410156 -16.953125 11.457031 -16.523438 10.6875 -15.671875 C 9.925781 -14.816406 9.546875 -13.582031 9.546875 -11.96875 C 9.546875 -10.320312 9.910156 -9.070312 10.640625 -8.21875 C 11.378906 -7.363281 12.332031 -6.9375 13.5 -6.9375 Z M 13.5 -6.9375 "/></g></g></g><g fill="#ff5100" fill-opacity="1"><g transform="translate(208.765501, 191.795081)"><g><path d="M 13.5 0.296875 C 11.113281 0.296875 8.976562 -0.195312 7.09375 -1.1875 C 5.207031 -2.1875 3.722656 -3.609375 2.640625 -5.453125 C 1.554688 -7.296875 1.015625 -9.46875 1.015625 -11.96875 C 1.015625 -14.4375 1.5625 -16.59375 2.65625 -18.4375 C 3.75 -20.289062 5.238281 -21.710938 7.125 -22.703125 C 9.019531 -23.691406 11.160156 -24.1875 13.546875 -24.1875 C 15.929688 -24.1875 18.066406 -23.691406 19.953125 -22.703125 C 21.835938 -21.710938 23.328125 -20.289062 24.421875 -18.4375 C 25.515625 -16.59375 26.0625 -14.4375 26.0625 -11.96875 C 26.0625 -9.5 25.515625 -7.332031 24.421875 -5.46875 C 23.328125 -3.613281 21.828125 -2.1875 19.921875 -1.1875 C 18.023438 -0.195312 15.882812 0.296875 13.5 0.296875 Z M 13.5 -6.9375 C 14.664062 -6.9375 15.640625 -7.367188 16.421875 -8.234375 C 17.203125 -9.109375 17.59375 -10.351562 17.59375 -11.96875 C 17.59375 -13.582031 17.203125 -14.816406 16.421875 -15.671875 C 15.640625 -16.523438 14.679688 -16.953125 13.546875 -16.953125 C 12.410156 -16.953125 11.457031 -16.523438 10.6875 -15.671875 C 9.925781 -14.816406 9.546875 -13.582031 9.546875 -11.96875 C 9.546875 -10.320312 9.910156 -9.070312 10.640625 -8.21875 C 11.378906 -7.363281 12.332031 -6.9375 13.5 -6.9375 Z M 13.5 -6.9375 "/></g></g></g><g fill="#ff5100" fill-opacity="1"><g transform="translate(235.850999, 191.795081)"><g><path d="M 1.015625 -11.96875 C 1.015625 -14.4375 1.460938 -16.59375 2.359375 -18.4375 C 3.253906 -20.289062 4.484375 -21.710938 6.046875 -22.703125 C 7.609375 -23.691406 9.34375 -24.1875 11.25 -24.1875 C 12.78125 -24.1875 14.148438 -23.867188 15.359375 -23.234375 C 16.566406 -22.597656 17.507812 -21.722656 18.1875 -20.609375 L 18.1875 -31.515625 L 26.578125 -31.515625 L 26.578125 0 L 18.1875 0 L 18.1875 -3.328125 C 17.53125 -2.210938 16.601562 -1.328125 15.40625 -0.671875 C 14.21875 -0.0234375 12.816406 0.296875 11.203125 0.296875 C 9.296875 0.296875 7.566406 -0.195312 6.015625 -1.1875 C 4.472656 -2.1875 3.253906 -3.613281 2.359375 -5.46875 C 1.460938 -7.332031 1.015625 -9.5 1.015625 -11.96875 Z M 18.234375 -11.96875 C 18.234375 -13.5 17.8125 -14.703125 16.96875 -15.578125 C 16.132812 -16.460938 15.109375 -16.90625 13.890625 -16.90625 C 12.640625 -16.90625 11.601562 -16.472656 10.78125 -15.609375 C 9.957031 -14.742188 9.546875 -13.53125 9.546875 -11.96875 C 9.546875 -10.4375 9.957031 -9.222656 10.78125 -8.328125 C 11.601562 -7.429688 12.640625 -6.984375 13.890625 -6.984375 C 15.109375 -6.984375 16.132812 -7.421875 16.96875 -8.296875 C 17.8125 -9.179688 18.234375 -10.40625 18.234375 -11.96875 Z M 18.234375 -11.96875 "/></g></g></g></svg>